<mxfile host="Electron" modified="2024-04-30T21:00:52.049Z" agent="Mozilla/5.0 (Windows NT 10.0; Win64; x64) AppleWebKit/537.36 (KHTML, like Gecko) draw.io/24.0.4 Chrome/120.0.6099.109 Electron/28.1.0 Safari/537.36" etag="g1azUlU3AIdN6NOErq_S" version="24.0.4" type="device">
  <diagram id="23iRSUPoRavnBvh4doch" name="Page-1">
    <mxGraphModel dx="1974" dy="669" grid="1" gridSize="10" guides="1" tooltips="1" connect="1" arrows="1" fold="1" page="1" pageScale="1" pageWidth="827" pageHeight="1169" math="0" shadow="0">
      <root>
        <mxCell id="0" />
        <mxCell id="1" parent="0" />
        <mxCell id="2HoKhNwtnJIrlUgpouuL-1" value="&lt;font style=&quot;font-size: 15px;&quot;&gt;Throwable&lt;/font&gt;" style="rounded=1;whiteSpace=wrap;html=1;fillColor=#6a00ff;strokeColor=#3700CC;fontColor=#ffffff;" vertex="1" parent="1">
          <mxGeometry x="260" y="40" width="160" height="40" as="geometry" />
        </mxCell>
        <mxCell id="2HoKhNwtnJIrlUgpouuL-2" value="&lt;font style=&quot;font-size: 15px;&quot;&gt;Exception&lt;/font&gt;" style="rounded=1;whiteSpace=wrap;html=1;fillColor=#d80073;strokeColor=#A50040;fontColor=#ffffff;" vertex="1" parent="1">
          <mxGeometry x="480" y="160" width="160" height="40" as="geometry" />
        </mxCell>
        <mxCell id="2HoKhNwtnJIrlUgpouuL-3" value="&lt;span style=&quot;font-size: 15px;&quot;&gt;Unchecked&lt;/span&gt;" style="rounded=1;whiteSpace=wrap;html=1;fillColor=#60a917;strokeColor=#2D7600;fontColor=#ffffff;" vertex="1" parent="1">
          <mxGeometry x="1000" y="100" width="120" height="40" as="geometry" />
        </mxCell>
        <mxCell id="2HoKhNwtnJIrlUgpouuL-4" value="&lt;span style=&quot;font-size: 15px;&quot;&gt;Checked&lt;/span&gt;" style="rounded=1;whiteSpace=wrap;html=1;fillColor=#d80073;strokeColor=#A50040;fontColor=#ffffff;" vertex="1" parent="1">
          <mxGeometry x="1000" y="40" width="120" height="40" as="geometry" />
        </mxCell>
        <mxCell id="2HoKhNwtnJIrlUgpouuL-5" value="" style="endArrow=classic;html=1;rounded=0;exitX=0.5;exitY=1;exitDx=0;exitDy=0;edgeStyle=orthogonalEdgeStyle;" edge="1" parent="1" source="2HoKhNwtnJIrlUgpouuL-1" target="2HoKhNwtnJIrlUgpouuL-2">
          <mxGeometry width="50" height="50" relative="1" as="geometry">
            <mxPoint x="390" y="310" as="sourcePoint" />
            <mxPoint x="440" y="260" as="targetPoint" />
          </mxGeometry>
        </mxCell>
        <mxCell id="2HoKhNwtnJIrlUgpouuL-6" value="&lt;font style=&quot;font-size: 15px;&quot;&gt;RuntimeException&lt;/font&gt;" style="rounded=1;whiteSpace=wrap;html=1;fillColor=#60a917;strokeColor=#2D7600;fontColor=#ffffff;" vertex="1" parent="1">
          <mxGeometry x="360" y="240" width="160" height="40" as="geometry" />
        </mxCell>
        <mxCell id="2HoKhNwtnJIrlUgpouuL-7" value="&lt;span style=&quot;font-size: 15px;&quot;&gt;Error&lt;/span&gt;" style="rounded=1;whiteSpace=wrap;html=1;fillColor=#60a917;strokeColor=#2D7600;fontColor=#ffffff;" vertex="1" parent="1">
          <mxGeometry x="-200" y="160" width="120" height="40" as="geometry" />
        </mxCell>
        <mxCell id="2HoKhNwtnJIrlUgpouuL-8" value="" style="endArrow=classic;html=1;rounded=0;edgeStyle=orthogonalEdgeStyle;entryX=0.5;entryY=0;entryDx=0;entryDy=0;" edge="1" parent="1" target="2HoKhNwtnJIrlUgpouuL-7">
          <mxGeometry width="50" height="50" relative="1" as="geometry">
            <mxPoint x="340" y="120" as="sourcePoint" />
            <mxPoint x="590" y="170" as="targetPoint" />
          </mxGeometry>
        </mxCell>
        <mxCell id="2HoKhNwtnJIrlUgpouuL-9" value="&lt;span style=&quot;font-size: 15px;&quot;&gt;OutOfMemoryError&lt;/span&gt;" style="rounded=1;whiteSpace=wrap;html=1;fillColor=#60a917;strokeColor=#2D7600;fontColor=#ffffff;" vertex="1" parent="1">
          <mxGeometry x="-560" y="280" width="160" height="40" as="geometry" />
        </mxCell>
        <mxCell id="2HoKhNwtnJIrlUgpouuL-11" value="&lt;span style=&quot;font-size: 15px;&quot;&gt;StackOverflowError&lt;/span&gt;" style="rounded=1;whiteSpace=wrap;html=1;fillColor=#60a917;strokeColor=#2D7600;fontColor=#ffffff;" vertex="1" parent="1">
          <mxGeometry x="-560" y="360" width="160" height="40" as="geometry" />
        </mxCell>
        <mxCell id="2HoKhNwtnJIrlUgpouuL-12" value="&lt;span style=&quot;font-size: 15px;&quot;&gt;LinkageError&lt;/span&gt;" style="rounded=1;whiteSpace=wrap;html=1;fillColor=#60a917;strokeColor=#2D7600;fontColor=#ffffff;" vertex="1" parent="1">
          <mxGeometry x="-440" y="520" width="160" height="40" as="geometry" />
        </mxCell>
        <mxCell id="2HoKhNwtnJIrlUgpouuL-13" value="" style="endArrow=classic;html=1;rounded=0;exitX=1;exitY=0.5;exitDx=0;exitDy=0;" edge="1" parent="1" source="2HoKhNwtnJIrlUgpouuL-11">
          <mxGeometry width="50" height="50" relative="1" as="geometry">
            <mxPoint x="-110" y="270" as="sourcePoint" />
            <mxPoint x="-320" y="300" as="targetPoint" />
            <Array as="points">
              <mxPoint x="-320" y="380" />
            </Array>
          </mxGeometry>
        </mxCell>
        <mxCell id="2HoKhNwtnJIrlUgpouuL-15" value="" style="endArrow=classic;html=1;rounded=0;entryX=0.75;entryY=1;entryDx=0;entryDy=0;exitX=1;exitY=0.5;exitDx=0;exitDy=0;" edge="1" parent="1" source="2HoKhNwtnJIrlUgpouuL-12" target="2HoKhNwtnJIrlUgpouuL-46">
          <mxGeometry width="50" height="50" relative="1" as="geometry">
            <mxPoint x="-240" y="540" as="sourcePoint" />
            <mxPoint x="-140" y="260" as="targetPoint" />
            <Array as="points">
              <mxPoint x="-240" y="540" />
              <mxPoint x="-240" y="440" />
            </Array>
          </mxGeometry>
        </mxCell>
        <mxCell id="2HoKhNwtnJIrlUgpouuL-16" value="" style="endArrow=classic;html=1;rounded=0;exitX=0.5;exitY=0;exitDx=0;exitDy=0;entryX=0.25;entryY=1;entryDx=0;entryDy=0;" edge="1" parent="1" source="2HoKhNwtnJIrlUgpouuL-6" target="2HoKhNwtnJIrlUgpouuL-2">
          <mxGeometry width="50" height="50" relative="1" as="geometry">
            <mxPoint x="440" y="300" as="sourcePoint" />
            <mxPoint x="490" y="250" as="targetPoint" />
            <Array as="points">
              <mxPoint x="440" y="220" />
              <mxPoint x="520" y="220" />
            </Array>
          </mxGeometry>
        </mxCell>
        <mxCell id="2HoKhNwtnJIrlUgpouuL-17" value="&lt;font style=&quot;font-size: 14px;&quot;&gt;IllegalArgumentException&lt;/font&gt;" style="rounded=1;whiteSpace=wrap;html=1;fillColor=#60a917;strokeColor=#2D7600;fontColor=#ffffff;" vertex="1" parent="1">
          <mxGeometry x="200" y="320" width="200" height="40" as="geometry" />
        </mxCell>
        <mxCell id="2HoKhNwtnJIrlUgpouuL-18" value="" style="endArrow=classic;html=1;rounded=0;entryX=0.5;entryY=1;entryDx=0;entryDy=0;exitX=1;exitY=0.5;exitDx=0;exitDy=0;" edge="1" parent="1" source="2HoKhNwtnJIrlUgpouuL-17" target="2HoKhNwtnJIrlUgpouuL-6">
          <mxGeometry width="50" height="50" relative="1" as="geometry">
            <mxPoint x="500" y="340" as="sourcePoint" />
            <mxPoint x="500" y="280" as="targetPoint" />
            <Array as="points">
              <mxPoint x="440" y="340" />
            </Array>
          </mxGeometry>
        </mxCell>
        <mxCell id="2HoKhNwtnJIrlUgpouuL-19" value="&lt;font style=&quot;font-size: 14px;&quot;&gt;IndexOutOfBoundException&lt;/font&gt;" style="rounded=1;whiteSpace=wrap;html=1;fillColor=#60a917;strokeColor=#2D7600;fontColor=#ffffff;" vertex="1" parent="1">
          <mxGeometry x="200" y="400" width="200" height="40" as="geometry" />
        </mxCell>
        <mxCell id="2HoKhNwtnJIrlUgpouuL-20" value="" style="endArrow=classic;html=1;rounded=0;exitX=1;exitY=0.5;exitDx=0;exitDy=0;" edge="1" parent="1" source="2HoKhNwtnJIrlUgpouuL-19">
          <mxGeometry width="50" height="50" relative="1" as="geometry">
            <mxPoint x="360" y="300" as="sourcePoint" />
            <mxPoint x="440" y="340" as="targetPoint" />
            <Array as="points">
              <mxPoint x="440" y="420" />
            </Array>
          </mxGeometry>
        </mxCell>
        <mxCell id="2HoKhNwtnJIrlUgpouuL-22" value="&lt;font style=&quot;font-size: 14px;&quot;&gt;ArithmeticException&lt;/font&gt;" style="rounded=1;whiteSpace=wrap;html=1;fillColor=#60a917;strokeColor=#2D7600;fontColor=#ffffff;" vertex="1" parent="1">
          <mxGeometry x="200" y="480" width="200" height="40" as="geometry" />
        </mxCell>
        <mxCell id="2HoKhNwtnJIrlUgpouuL-24" value="" style="edgeStyle=orthogonalEdgeStyle;rounded=0;orthogonalLoop=1;jettySize=auto;html=1;entryX=0.5;entryY=1;entryDx=0;entryDy=0;" edge="1" parent="1" source="2HoKhNwtnJIrlUgpouuL-23" target="2HoKhNwtnJIrlUgpouuL-17">
          <mxGeometry relative="1" as="geometry" />
        </mxCell>
        <mxCell id="2HoKhNwtnJIrlUgpouuL-23" value="&lt;font style=&quot;font-size: 14px;&quot;&gt;NumberFormatException&lt;/font&gt;" style="rounded=1;whiteSpace=wrap;html=1;fillColor=#60a917;strokeColor=#2D7600;fontColor=#ffffff;" vertex="1" parent="1">
          <mxGeometry x="-10" y="360" width="170" height="40" as="geometry" />
        </mxCell>
        <mxCell id="2HoKhNwtnJIrlUgpouuL-26" value="" style="edgeStyle=orthogonalEdgeStyle;rounded=0;orthogonalLoop=1;jettySize=auto;html=1;entryX=0.5;entryY=1;entryDx=0;entryDy=0;" edge="1" parent="1" source="2HoKhNwtnJIrlUgpouuL-25" target="2HoKhNwtnJIrlUgpouuL-19">
          <mxGeometry relative="1" as="geometry" />
        </mxCell>
        <mxCell id="2HoKhNwtnJIrlUgpouuL-25" value="&lt;font style=&quot;font-size: 14px;&quot;&gt;ArrayIndexOutOfBoundException&lt;/font&gt;" style="rounded=1;whiteSpace=wrap;html=1;fillColor=#60a917;strokeColor=#2D7600;fontColor=#ffffff;" vertex="1" parent="1">
          <mxGeometry x="-80" y="440" width="240" height="40" as="geometry" />
        </mxCell>
        <mxCell id="2HoKhNwtnJIrlUgpouuL-27" value="" style="endArrow=classic;html=1;rounded=0;exitX=1;exitY=0.5;exitDx=0;exitDy=0;" edge="1" parent="1" source="2HoKhNwtnJIrlUgpouuL-22">
          <mxGeometry width="50" height="50" relative="1" as="geometry">
            <mxPoint x="410" y="430" as="sourcePoint" />
            <mxPoint x="440" y="420" as="targetPoint" />
            <Array as="points">
              <mxPoint x="440" y="500" />
            </Array>
          </mxGeometry>
        </mxCell>
        <mxCell id="2HoKhNwtnJIrlUgpouuL-29" value="" style="edgeStyle=orthogonalEdgeStyle;rounded=0;orthogonalLoop=1;jettySize=auto;html=1;entryX=0.75;entryY=1;entryDx=0;entryDy=0;" edge="1" parent="1" source="2HoKhNwtnJIrlUgpouuL-28" target="2HoKhNwtnJIrlUgpouuL-2">
          <mxGeometry relative="1" as="geometry" />
        </mxCell>
        <mxCell id="2HoKhNwtnJIrlUgpouuL-28" value="&lt;font style=&quot;font-size: 15px;&quot;&gt;IOException&lt;/font&gt;" style="rounded=1;whiteSpace=wrap;html=1;fillColor=#d80073;strokeColor=#A50040;fontColor=#ffffff;" vertex="1" parent="1">
          <mxGeometry x="680" y="240" width="160" height="40" as="geometry" />
        </mxCell>
        <mxCell id="2HoKhNwtnJIrlUgpouuL-30" value="&lt;font style=&quot;font-size: 15px;&quot;&gt;FileNotFoundException&lt;/font&gt;" style="rounded=1;whiteSpace=wrap;html=1;fillColor=#d80073;strokeColor=#A50040;fontColor=#ffffff;" vertex="1" parent="1">
          <mxGeometry x="960" y="280" width="200" height="40" as="geometry" />
        </mxCell>
        <mxCell id="2HoKhNwtnJIrlUgpouuL-31" value="" style="endArrow=classic;html=1;rounded=0;entryX=1;entryY=0.5;entryDx=0;entryDy=0;exitX=0;exitY=0.5;exitDx=0;exitDy=0;edgeStyle=orthogonalEdgeStyle;" edge="1" parent="1" source="2HoKhNwtnJIrlUgpouuL-30" target="2HoKhNwtnJIrlUgpouuL-28">
          <mxGeometry width="50" height="50" relative="1" as="geometry">
            <mxPoint x="1060" y="250" as="sourcePoint" />
            <mxPoint x="400" y="360" as="targetPoint" />
          </mxGeometry>
        </mxCell>
        <mxCell id="2HoKhNwtnJIrlUgpouuL-34" value="" style="rounded=0;orthogonalLoop=1;jettySize=auto;html=1;exitX=0;exitY=0.5;exitDx=0;exitDy=0;edgeStyle=orthogonalEdgeStyle;" edge="1" parent="1" source="2HoKhNwtnJIrlUgpouuL-32">
          <mxGeometry relative="1" as="geometry">
            <mxPoint x="900" y="300" as="targetPoint" />
            <Array as="points">
              <mxPoint x="900" y="380" />
              <mxPoint x="900" y="300" />
            </Array>
          </mxGeometry>
        </mxCell>
        <mxCell id="2HoKhNwtnJIrlUgpouuL-32" value="&lt;font style=&quot;font-size: 15px;&quot;&gt;SocketException&lt;/font&gt;" style="rounded=1;whiteSpace=wrap;html=1;fillColor=#d80073;strokeColor=#A50040;fontColor=#ffffff;" vertex="1" parent="1">
          <mxGeometry x="960" y="360" width="160" height="40" as="geometry" />
        </mxCell>
        <mxCell id="2HoKhNwtnJIrlUgpouuL-35" value="&lt;font style=&quot;font-size: 15px;&quot;&gt;SqlException&lt;/font&gt;" style="rounded=1;whiteSpace=wrap;html=1;fillColor=#d80073;strokeColor=#A50040;fontColor=#ffffff;" vertex="1" parent="1">
          <mxGeometry x="680" y="360" width="160" height="40" as="geometry" />
        </mxCell>
        <mxCell id="2HoKhNwtnJIrlUgpouuL-36" value="" style="endArrow=classic;html=1;rounded=0;exitX=0;exitY=0.5;exitDx=0;exitDy=0;" edge="1" parent="1" source="2HoKhNwtnJIrlUgpouuL-35">
          <mxGeometry width="50" height="50" relative="1" as="geometry">
            <mxPoint x="580" y="410" as="sourcePoint" />
            <mxPoint x="600" y="260" as="targetPoint" />
            <Array as="points">
              <mxPoint x="600" y="380" />
            </Array>
          </mxGeometry>
        </mxCell>
        <mxCell id="2HoKhNwtnJIrlUgpouuL-37" value="&lt;font style=&quot;font-size: 15px;&quot;&gt;EofException&lt;/font&gt;" style="rounded=1;whiteSpace=wrap;html=1;fillColor=#d80073;strokeColor=#A50040;fontColor=#ffffff;" vertex="1" parent="1">
          <mxGeometry x="960" y="440" width="160" height="40" as="geometry" />
        </mxCell>
        <mxCell id="2HoKhNwtnJIrlUgpouuL-38" value="" style="rounded=0;orthogonalLoop=1;jettySize=auto;html=1;exitX=0;exitY=0.5;exitDx=0;exitDy=0;" edge="1" parent="1" source="2HoKhNwtnJIrlUgpouuL-37">
          <mxGeometry relative="1" as="geometry">
            <mxPoint x="940" y="460" as="sourcePoint" />
            <mxPoint x="900" y="380" as="targetPoint" />
            <Array as="points">
              <mxPoint x="900" y="460" />
            </Array>
          </mxGeometry>
        </mxCell>
        <mxCell id="2HoKhNwtnJIrlUgpouuL-39" value="&lt;font style=&quot;font-size: 14px;&quot;&gt;ClassCastException&lt;/font&gt;" style="rounded=1;whiteSpace=wrap;html=1;fillColor=#60a917;strokeColor=#2D7600;fontColor=#ffffff;" vertex="1" parent="1">
          <mxGeometry x="200" y="560" width="200" height="40" as="geometry" />
        </mxCell>
        <mxCell id="2HoKhNwtnJIrlUgpouuL-40" value="" style="endArrow=classic;html=1;rounded=0;exitX=1;exitY=0.5;exitDx=0;exitDy=0;" edge="1" parent="1" source="2HoKhNwtnJIrlUgpouuL-39">
          <mxGeometry width="50" height="50" relative="1" as="geometry">
            <mxPoint x="410" y="510" as="sourcePoint" />
            <mxPoint x="440" y="500" as="targetPoint" />
            <Array as="points">
              <mxPoint x="440" y="580" />
            </Array>
          </mxGeometry>
        </mxCell>
        <mxCell id="2HoKhNwtnJIrlUgpouuL-41" value="&lt;font style=&quot;font-size: 14px;&quot;&gt;NullPointerException&lt;/font&gt;" style="rounded=1;whiteSpace=wrap;html=1;fillColor=#60a917;strokeColor=#2D7600;fontColor=#ffffff;" vertex="1" parent="1">
          <mxGeometry x="200" y="640" width="200" height="40" as="geometry" />
        </mxCell>
        <mxCell id="2HoKhNwtnJIrlUgpouuL-42" value="" style="endArrow=classic;html=1;rounded=0;exitX=1;exitY=0.5;exitDx=0;exitDy=0;" edge="1" parent="1" source="2HoKhNwtnJIrlUgpouuL-41">
          <mxGeometry width="50" height="50" relative="1" as="geometry">
            <mxPoint x="410" y="590" as="sourcePoint" />
            <mxPoint x="440" y="580" as="targetPoint" />
            <Array as="points">
              <mxPoint x="440" y="660" />
            </Array>
          </mxGeometry>
        </mxCell>
        <mxCell id="2HoKhNwtnJIrlUgpouuL-43" value="&lt;font style=&quot;font-size: 14px;&quot;&gt;NoSuchElementException&lt;/font&gt;" style="rounded=1;whiteSpace=wrap;html=1;fillColor=#60a917;strokeColor=#2D7600;fontColor=#ffffff;" vertex="1" parent="1">
          <mxGeometry x="200" y="720" width="200" height="40" as="geometry" />
        </mxCell>
        <mxCell id="2HoKhNwtnJIrlUgpouuL-44" value="" style="endArrow=classic;html=1;rounded=0;exitX=1;exitY=0.5;exitDx=0;exitDy=0;" edge="1" parent="1" source="2HoKhNwtnJIrlUgpouuL-43">
          <mxGeometry width="50" height="50" relative="1" as="geometry">
            <mxPoint x="410" y="670" as="sourcePoint" />
            <mxPoint x="440" y="660" as="targetPoint" />
            <Array as="points">
              <mxPoint x="440" y="740" />
            </Array>
          </mxGeometry>
        </mxCell>
        <mxCell id="2HoKhNwtnJIrlUgpouuL-45" value="&lt;span style=&quot;font-size: 15px;&quot;&gt;ThreadDeadError&lt;/span&gt;" style="rounded=1;whiteSpace=wrap;html=1;fillColor=#60a917;strokeColor=#2D7600;fontColor=#ffffff;" vertex="1" parent="1">
          <mxGeometry x="-440" y="600" width="160" height="40" as="geometry" />
        </mxCell>
        <mxCell id="2HoKhNwtnJIrlUgpouuL-46" value="&lt;span style=&quot;font-size: 15px;&quot;&gt;VirualMachineError&lt;/span&gt;" style="rounded=1;whiteSpace=wrap;html=1;fillColor=#60a917;strokeColor=#2D7600;fontColor=#ffffff;" vertex="1" parent="1">
          <mxGeometry x="-360" y="240" width="160" height="40" as="geometry" />
        </mxCell>
        <mxCell id="2HoKhNwtnJIrlUgpouuL-47" value="&lt;span style=&quot;font-size: 15px;&quot;&gt;UnknownError&lt;/span&gt;" style="rounded=1;whiteSpace=wrap;html=1;fillColor=#60a917;strokeColor=#2D7600;fontColor=#ffffff;" vertex="1" parent="1">
          <mxGeometry x="-560" y="440" width="160" height="40" as="geometry" />
        </mxCell>
        <mxCell id="2HoKhNwtnJIrlUgpouuL-48" value="" style="endArrow=classic;html=1;rounded=0;exitX=1;exitY=0.5;exitDx=0;exitDy=0;" edge="1" parent="1" source="2HoKhNwtnJIrlUgpouuL-45">
          <mxGeometry width="50" height="50" relative="1" as="geometry">
            <mxPoint x="-190" y="550" as="sourcePoint" />
            <mxPoint x="-240" y="540" as="targetPoint" />
            <Array as="points">
              <mxPoint x="-240" y="620" />
            </Array>
          </mxGeometry>
        </mxCell>
        <mxCell id="2HoKhNwtnJIrlUgpouuL-49" value="" style="endArrow=classic;html=1;rounded=0;exitX=1;exitY=0.5;exitDx=0;exitDy=0;entryX=0.5;entryY=1;entryDx=0;entryDy=0;" edge="1" parent="1" source="2HoKhNwtnJIrlUgpouuL-46" target="2HoKhNwtnJIrlUgpouuL-7">
          <mxGeometry width="50" height="50" relative="1" as="geometry">
            <mxPoint x="-190" y="510" as="sourcePoint" />
            <mxPoint x="-140" y="500" as="targetPoint" />
            <Array as="points">
              <mxPoint x="-140" y="260" />
            </Array>
          </mxGeometry>
        </mxCell>
        <mxCell id="2HoKhNwtnJIrlUgpouuL-50" value="" style="endArrow=classic;html=1;rounded=0;exitX=1;exitY=0.5;exitDx=0;exitDy=0;" edge="1" parent="1" source="2HoKhNwtnJIrlUgpouuL-47">
          <mxGeometry width="50" height="50" relative="1" as="geometry">
            <mxPoint x="-190" y="590" as="sourcePoint" />
            <mxPoint x="-320" y="380" as="targetPoint" />
            <Array as="points">
              <mxPoint x="-320" y="460" />
            </Array>
          </mxGeometry>
        </mxCell>
        <mxCell id="2HoKhNwtnJIrlUgpouuL-51" value="" style="endArrow=classic;html=1;rounded=0;exitX=1;exitY=0.5;exitDx=0;exitDy=0;entryX=0.25;entryY=1;entryDx=0;entryDy=0;" edge="1" parent="1" source="2HoKhNwtnJIrlUgpouuL-9" target="2HoKhNwtnJIrlUgpouuL-46">
          <mxGeometry width="50" height="50" relative="1" as="geometry">
            <mxPoint x="-360" y="360" as="sourcePoint" />
            <mxPoint x="-310" y="310" as="targetPoint" />
            <Array as="points">
              <mxPoint x="-320" y="300" />
            </Array>
          </mxGeometry>
        </mxCell>
        <mxCell id="2HoKhNwtnJIrlUgpouuL-53" style="edgeStyle=orthogonalEdgeStyle;rounded=0;orthogonalLoop=1;jettySize=auto;html=1;" edge="1" parent="1" source="2HoKhNwtnJIrlUgpouuL-52">
          <mxGeometry relative="1" as="geometry">
            <mxPoint x="600" y="380" as="targetPoint" />
          </mxGeometry>
        </mxCell>
        <mxCell id="2HoKhNwtnJIrlUgpouuL-52" value="&lt;font style=&quot;font-size: 15px;&quot;&gt;ReflectiveOperatonException&lt;/font&gt;" style="rounded=1;whiteSpace=wrap;html=1;fillColor=#d80073;strokeColor=#A50040;fontColor=#ffffff;" vertex="1" parent="1">
          <mxGeometry x="640" y="600" width="200" height="40" as="geometry" />
        </mxCell>
        <mxCell id="2HoKhNwtnJIrlUgpouuL-55" style="edgeStyle=orthogonalEdgeStyle;rounded=0;orthogonalLoop=1;jettySize=auto;html=1;exitX=0;exitY=0.5;exitDx=0;exitDy=0;entryX=1;entryY=0.5;entryDx=0;entryDy=0;" edge="1" parent="1" source="2HoKhNwtnJIrlUgpouuL-54" target="2HoKhNwtnJIrlUgpouuL-52">
          <mxGeometry relative="1" as="geometry" />
        </mxCell>
        <mxCell id="2HoKhNwtnJIrlUgpouuL-54" value="&lt;font style=&quot;font-size: 15px;&quot;&gt;NoSuchFieldException&lt;/font&gt;" style="rounded=1;whiteSpace=wrap;html=1;fillColor=#d80073;strokeColor=#A50040;fontColor=#ffffff;" vertex="1" parent="1">
          <mxGeometry x="920" y="640" width="200" height="40" as="geometry" />
        </mxCell>
        <mxCell id="2HoKhNwtnJIrlUgpouuL-57" style="edgeStyle=orthogonalEdgeStyle;rounded=0;orthogonalLoop=1;jettySize=auto;html=1;" edge="1" parent="1" source="2HoKhNwtnJIrlUgpouuL-56">
          <mxGeometry relative="1" as="geometry">
            <mxPoint x="880" y="660" as="targetPoint" />
          </mxGeometry>
        </mxCell>
        <mxCell id="2HoKhNwtnJIrlUgpouuL-56" value="&lt;font style=&quot;font-size: 15px;&quot;&gt;IllegalAccessException&lt;/font&gt;" style="rounded=1;whiteSpace=wrap;html=1;fillColor=#d80073;strokeColor=#A50040;fontColor=#ffffff;" vertex="1" parent="1">
          <mxGeometry x="920" y="720" width="200" height="40" as="geometry" />
        </mxCell>
        <mxCell id="2HoKhNwtnJIrlUgpouuL-59" style="edgeStyle=orthogonalEdgeStyle;rounded=0;orthogonalLoop=1;jettySize=auto;html=1;" edge="1" parent="1" source="2HoKhNwtnJIrlUgpouuL-58">
          <mxGeometry relative="1" as="geometry">
            <mxPoint x="880" y="740" as="targetPoint" />
          </mxGeometry>
        </mxCell>
        <mxCell id="2HoKhNwtnJIrlUgpouuL-58" value="&lt;font style=&quot;font-size: 15px;&quot;&gt;NoSuchMethodException&lt;/font&gt;" style="rounded=1;whiteSpace=wrap;html=1;fillColor=#d80073;strokeColor=#A50040;fontColor=#ffffff;" vertex="1" parent="1">
          <mxGeometry x="920" y="800" width="200" height="40" as="geometry" />
        </mxCell>
        <mxCell id="2HoKhNwtnJIrlUgpouuL-61" style="edgeStyle=orthogonalEdgeStyle;rounded=0;orthogonalLoop=1;jettySize=auto;html=1;" edge="1" parent="1" source="2HoKhNwtnJIrlUgpouuL-60">
          <mxGeometry relative="1" as="geometry">
            <mxPoint x="880" y="820" as="targetPoint" />
          </mxGeometry>
        </mxCell>
        <mxCell id="2HoKhNwtnJIrlUgpouuL-60" value="&lt;font style=&quot;font-size: 15px;&quot;&gt;ClassNotFoundException&lt;/font&gt;" style="rounded=1;whiteSpace=wrap;html=1;fillColor=#d80073;strokeColor=#A50040;fontColor=#ffffff;" vertex="1" parent="1">
          <mxGeometry x="920" y="880" width="200" height="40" as="geometry" />
        </mxCell>
        <mxCell id="2HoKhNwtnJIrlUgpouuL-63" style="edgeStyle=orthogonalEdgeStyle;rounded=0;orthogonalLoop=1;jettySize=auto;html=1;" edge="1" parent="1" source="2HoKhNwtnJIrlUgpouuL-62">
          <mxGeometry relative="1" as="geometry">
            <mxPoint x="900" y="460" as="targetPoint" />
          </mxGeometry>
        </mxCell>
        <mxCell id="2HoKhNwtnJIrlUgpouuL-62" value="&lt;font style=&quot;font-size: 15px;&quot;&gt;MalformedURLException&lt;/font&gt;" style="rounded=1;whiteSpace=wrap;html=1;fillColor=#d80073;strokeColor=#A50040;fontColor=#ffffff;" vertex="1" parent="1">
          <mxGeometry x="960" y="520" width="200" height="40" as="geometry" />
        </mxCell>
      </root>
    </mxGraphModel>
  </diagram>
</mxfile>
